<?xml version="1.0" standalone="no"?>
<!DOCTYPE svg PUBLIC "-//W3C//DTD SVG 20010904//EN"
 "http://www.w3.org/TR/2001/REC-SVG-20010904/DTD/svg10.dtd">
<svg version="1.0" xmlns="http://www.w3.org/2000/svg"
 width="64.000000pt" height="64.000000pt" viewBox="0 0 64.000000 64.000000"
 preserveAspectRatio="xMidYMid meet">

<g transform="translate(0.000000,64.000000) scale(0.100000,-0.100000)"
fill="#000000" stroke="none">
<path d="M255 604 c-54 -19 -75 -47 -75 -100 0 -23 -4 -46 -10 -49 -18 -11
-11 -44 20 -97 l29 -52 -77 -36 c-42 -21 -86 -47 -96 -59 -24 -27 -35 -133
-16 -156 19 -22 561 -22 580 0 8 10 11 36 8 75 -5 75 -25 97 -123 141 -71 32
-72 34 -62 59 6 14 19 36 29 49 22 29 23 64 3 81 -17 14 -21 45 -5 35 15 -9
12 22 -6 56 -17 35 -83 69 -129 68 -16 0 -48 -7 -70 -15z m160 -35 c34 -30 46
-59 24 -59 -13 0 -1 -63 12 -68 26 -10 -8 -85 -67 -148 -58 -61 -116 -39 -181
70 -24 39 -30 76 -13 76 6 0 10 24 10 53 0 28 4 58 9 66 13 21 68 38 123 40
40 1 53 -4 83 -30z m-158 -301 c23 -22 31 -58 13 -58 -5 0 -25 14 -45 31 -19
17 -35 27 -35 21 0 -14 68 -72 85 -72 11 0 15 -12 15 -42 0 -90 3 -88 -131
-88 l-119 0 0 58 c0 37 6 66 16 81 14 19 141 88 168 90 6 1 20 -9 33 -21z
m236 -12 c91 -42 107 -62 107 -138 l0 -58 -119 0 c-134 0 -131 -2 -131 86 0
35 4 43 23 48 25 6 81 55 73 63 -3 3 -19 -6 -36 -21 -37 -30 -50 -33 -50 -9 0
17 37 63 50 63 4 0 41 -15 83 -34z m-153 -36 c0 -13 -7 -20 -20 -20 -13 0 -20
7 -20 20 0 13 7 20 20 20 13 0 20 -7 20 -20z m-6 -62 c3 -13 6 -40 6 -60 0
-31 -4 -38 -20 -38 -16 0 -20 7 -20 38 0 71 21 108 34 60z"/>
<path d="M244 519 c-9 -10 -14 -22 -11 -26 4 -4 13 1 20 10 11 15 16 15 52 2
47 -17 95 -19 95 -5 0 6 -16 10 -35 10 -20 0 -51 6 -70 14 -31 13 -35 13 -51
-5z"/>
<path d="M50 90 c0 -11 5 -20 10 -20 6 0 10 9 10 20 0 11 -4 20 -10 20 -5 0
-10 -9 -10 -20z"/>
<path d="M100 90 c0 -11 5 -20 10 -20 6 0 10 9 10 20 0 11 -4 20 -10 20 -5 0
-10 -9 -10 -20z"/>
<path d="M150 90 c0 -11 5 -20 10 -20 6 0 10 9 10 20 0 11 -4 20 -10 20 -5 0
-10 -9 -10 -20z"/>
<path d="M200 90 c0 -11 5 -20 10 -20 6 0 10 9 10 20 0 11 -4 20 -10 20 -5 0
-10 -9 -10 -20z"/>
<path d="M250 90 c0 -11 5 -20 10 -20 6 0 10 9 10 20 0 11 -4 20 -10 20 -5 0
-10 -9 -10 -20z"/>
<path d="M370 90 c0 -11 5 -20 10 -20 6 0 10 9 10 20 0 11 -4 20 -10 20 -5 0
-10 -9 -10 -20z"/>
<path d="M420 90 c0 -11 5 -20 10 -20 6 0 10 9 10 20 0 11 -4 20 -10 20 -5 0
-10 -9 -10 -20z"/>
<path d="M470 90 c0 -11 5 -20 10 -20 6 0 10 9 10 20 0 11 -4 20 -10 20 -5 0
-10 -9 -10 -20z"/>
<path d="M520 90 c0 -11 5 -20 10 -20 6 0 10 9 10 20 0 11 -4 20 -10 20 -5 0
-10 -9 -10 -20z"/>
<path d="M570 90 c0 -11 5 -20 10 -20 6 0 10 9 10 20 0 11 -4 20 -10 20 -5 0
-10 -9 -10 -20z"/>
</g>
</svg>
