<?xml version="1.0" standalone="no"?>
<!DOCTYPE svg PUBLIC "-//W3C//DTD SVG 20010904//EN"
 "http://www.w3.org/TR/2001/REC-SVG-20010904/DTD/svg10.dtd">
<svg version="1.0" xmlns="http://www.w3.org/2000/svg"
 width="512.000000pt" height="512.000000pt" viewBox="0 0 512.000000 512.000000"
 preserveAspectRatio="xMidYMid meet">

<g transform="translate(0.000000,512.000000) scale(0.100000,-0.100000)"
fill="#000000" stroke="none">
<path d="M249 4644 c-70 -21 -139 -73 -181 -134 -72 -106 -69 -14 -66 -1611 3
-1389 4 -1435 22 -1479 49 -113 143 -197 247 -219 81 -18 4519 -15 4586 2 104
27 192 107 239 217 18 44 19 93 22 1479 3 1597 6 1505 -66 1611 -43 63 -111
113 -185 135 -74 22 -4546 22 -4618 -1z m4613 -187 c15 -10 37 -40 50 -65 l23
-47 3 -1390 c2 -1016 0 -1404 -8 -1443 -14 -65 -57 -118 -108 -132 -50 -13
-4473 -14 -4521 0 -50 14 -89 57 -106 114 -23 76 -22 2787 0 2864 17 55 61
108 98 115 12 2 1039 4 2282 3 2174 -1 2261 -2 2287 -19z"/>
<path d="M3064 3857 c-242 -164 -535 -319 -729 -387 -92 -32 -276 -80 -307
-80 -15 0 -18 9 -18 56 0 124 -1 124 -455 124 -389 0 -420 -3 -444 -48 -16
-31 -15 -992 2 -1013 21 -27 54 -39 111 -39 l56 0 0 -246 0 -246 29 -29 29
-29 216 0 c213 0 215 0 243 24 l28 24 3 251 3 251 60 0 c54 0 64 3 90 29 25
26 29 37 29 85 0 55 0 56 29 56 50 0 251 -56 366 -103 210 -85 449 -215 678
-371 54 -36 104 -66 113 -66 24 0 72 28 84 49 7 13 10 306 10 871 l0 852 -29
29 c-46 45 -73 39 -197 -44z m46 -843 l0 -656 -47 35 c-79 57 -228 144 -367
214 -226 113 -430 184 -611 214 l-75 12 2 185 3 186 80 13 c91 14 208 46 340
94 130 47 421 196 555 283 63 42 116 76 118 76 1 0 2 -295 2 -656z m-1280 1
l0 -365 -275 0 -275 0 0 365 0 365 275 0 275 0 0 -365z m-185 -730 l0 -180
-92 -3 -93 -3 0 186 0 186 93 -3 92 -3 0 -180z"/>
<path d="M3715 3562 c-110 -55 -208 -109 -218 -120 -11 -12 -19 -37 -20 -58
-1 -29 5 -42 31 -65 18 -16 41 -29 52 -29 32 0 438 207 450 229 28 54 -6 125
-65 137 -25 4 -68 -13 -230 -94z"/>
<path d="M3525 3098 c-52 -30 -62 -102 -20 -143 l24 -25 221 0 221 0 24 25
c36 35 34 88 -4 126 l-29 29 -209 0 c-138 -1 -215 -4 -228 -12z"/>
<path d="M3517 2729 c-11 -6 -25 -26 -33 -45 -12 -29 -12 -39 0 -68 13 -31 33
-44 216 -135 133 -67 212 -101 234 -101 68 0 110 82 70 138 -20 29 -405 222
-441 222 -16 0 -36 -5 -46 -11z"/>
<path d="M937 996 c-69 -19 -127 -63 -162 -123 l-30 -52 -347 -1 -346 0 -26
-31 c-35 -41 -34 -83 3 -120 l29 -29 346 0 c344 0 345 0 351 -21 12 -38 88
-111 140 -135 68 -32 152 -32 221 0 57 26 116 82 134 126 l12 30 1900 0 1900
0 29 29 c37 37 38 79 3 120 l-26 31 -1901 0 -1902 0 -24 46 c-56 106 -188 162
-304 130z m129 -200 c53 -45 28 -139 -40 -151 -38 -8 -90 14 -100 40 -37 97
64 177 140 111z"/>
</g>
</svg>
