<?xml version="1.0" standalone="no"?>
<!DOCTYPE svg PUBLIC "-//W3C//DTD SVG 20010904//EN"
 "http://www.w3.org/TR/2001/REC-SVG-20010904/DTD/svg10.dtd">
<svg version="1.0" xmlns="http://www.w3.org/2000/svg"
 width="512.000000pt" height="512.000000pt" viewBox="0 0 512.000000 512.000000"
 preserveAspectRatio="xMidYMid meet">

<g transform="translate(0.000000,512.000000) scale(0.100000,-0.100000)"
fill="#000000" stroke="none">
<path d="M306 4819 c-62 -15 -153 -68 -197 -116 -22 -24 -55 -74 -72 -111
l-32 -67 0 -1495 0 -1495 27 -58 c51 -109 121 -175 232 -221 50 -21 67 -21
897 -26 l845 -5 -53 -168 c-38 -118 -59 -170 -71 -173 -103 -32 -188 -107
-216 -191 -20 -59 -20 -146 0 -206 20 -60 84 -131 148 -165 l51 -27 695 0 695
0 51 27 c103 54 164 154 164 268 0 139 -86 248 -232 294 -12 3 -33 55 -71 173
l-53 168 845 5 846 5 57 23 c130 53 218 156 247 292 9 41 11 423 9 1515 l-3
1460 -32 67 c-44 93 -100 151 -191 196 l-76 37 -2235 2 c-1327 0 -2252 -3
-2275 -8z m4525 -224 c23 -16 52 -48 63 -70 21 -40 21 -42 24 -1480 3 -1607 8
-1490 -68 -1559 -21 -19 -56 -39 -77 -45 -53 -15 -4373 -15 -4426 0 -49 13
-105 63 -128 114 -18 38 -19 108 -19 1469 0 1100 3 1438 12 1470 15 49 75 112
120 125 21 6 868 9 2245 8 l2211 -2 43 -30z m-1875 -3535 c29 -91 54 -166 54
-167 0 -2 -203 -3 -451 -3 -357 0 -450 3 -446 13 2 6 25 77 51 157 26 80 49
151 51 158 4 10 78 12 346 10 l341 -3 54 -165z m290 -403 c26 -30 32 -83 14
-118 -27 -49 -24 -49 -700 -49 -676 0 -673 0 -700 49 -25 49 -3 122 44 141 11
5 313 8 669 7 l649 -2 24 -28z"/>
<path d="M605 4351 c-22 -10 -57 -36 -77 -57 -73 -76 -68 13 -68 -1255 0 -838
3 -1152 12 -1180 16 -55 73 -118 132 -145 l51 -24 746 0 c737 0 747 0 772 20
52 41 45 129 -12 163 -27 16 -91 17 -753 17 -550 0 -727 3 -736 12 -17 17 -17
2239 0 2256 17 17 3759 17 3776 0 17 -17 17 -2239 0 -2256 -9 -9 -186 -12
-736 -12 -662 0 -726 -1 -753 -17 -57 -34 -64 -122 -12 -163 25 -20 35 -20
772 -20 l746 0 51 24 c59 27 116 90 132 145 16 52 17 2288 1 2345 -13 48 -82
123 -134 147 -38 18 -122 19 -1955 19 -1846 0 -1916 -1 -1955 -19z"/>
<path d="M1149 3970 c-86 -15 -150 -66 -188 -150 -19 -41 -21 -65 -21 -256 0
-228 6 -264 55 -328 14 -18 49 -46 77 -62 l53 -29 335 0 335 0 53 29 c58 32
105 94 123 159 6 24 9 123 7 251 -3 238 -9 260 -84 326 -72 63 -79 64 -404 66
-162 2 -316 -1 -341 -6z m621 -219 c6 -12 10 -95 10 -200 0 -175 -1 -180 -22
-195 -19 -14 -65 -16 -302 -16 -246 0 -282 2 -298 17 -16 14 -18 35 -18 203 0
131 4 190 12 198 9 9 91 12 310 12 284 0 298 -1 308 -19z"/>
<path d="M2154 3826 c-37 -37 -43 -70 -20 -115 26 -49 42 -51 397 -51 358 0
373 2 397 55 20 44 14 75 -22 111 l-34 34 -342 0 -342 0 -34 -34z"/>
<path d="M2190 3453 c-52 -19 -83 -89 -60 -134 31 -59 24 -59 400 -59 312 0
347 2 366 18 51 41 57 97 15 144 l-29 33 -339 2 c-186 1 -345 -1 -353 -4z"/>
<path d="M3234 3191 c-17 -11 -36 -33 -42 -50 -12 -35 -19 -6 114 -501 90
-335 99 -354 160 -366 37 -7 66 6 112 49 l32 31 138 -136 c75 -75 148 -141
161 -148 51 -26 78 -8 254 168 220 221 218 194 20 394 l-147 148 31 32 c55 59
65 96 38 148 -9 18 -30 34 -57 44 -49 18 -754 206 -771 206 -7 0 -26 -9 -43
-19z m383 -276 c93 -25 176 -48 185 -51 15 -4 15 -8 2 -41 -9 -20 -13 -47 -9
-62 4 -15 67 -87 151 -171 l144 -145 -70 -70 -70 -70 -133 131 c-72 72 -143
139 -157 148 -31 20 -62 20 -100 1 -17 -9 -30 -13 -30 -11 0 3 -22 89 -50 191
-27 102 -50 188 -50 191 0 8 22 3 187 -41z"/>
<path d="M1337 2970 c-208 -66 -330 -277 -282 -487 29 -129 114 -231 241 -290
53 -25 70 -28 164 -28 97 0 110 2 173 32 286 136 326 523 74 710 -107 78 -248
103 -370 63z m209 -199 c55 -25 110 -92 123 -150 35 -163 -123 -303 -280 -249
-149 51 -193 242 -82 350 70 68 158 86 239 49z"/>
<path d="M2155 2856 c-47 -47 -43 -112 9 -150 26 -20 42 -21 354 -24 296 -2
330 -1 362 15 65 33 78 120 23 163 -25 19 -38 20 -375 20 l-349 0 -24 -24z"/>
<path d="M2155 2456 c-49 -49 -42 -115 15 -154 34 -23 34 -23 371 -20 l337 3
26 24 c48 45 40 132 -13 161 -13 6 -148 10 -366 10 l-346 0 -24 -24z"/>
<path d="M2524 1881 c-30 -13 -64 -59 -64 -88 0 -54 48 -103 100 -103 53 0
100 49 100 104 0 56 -83 109 -136 87z"/>
</g>
</svg>
