<?xml version="1.0" standalone="no"?>
<!DOCTYPE svg PUBLIC "-//W3C//DTD SVG 20010904//EN"
 "http://www.w3.org/TR/2001/REC-SVG-20010904/DTD/svg10.dtd">
<svg version="1.0" xmlns="http://www.w3.org/2000/svg"
 width="96.000000pt" height="96.000000pt" viewBox="0 0 96.000000 96.000000"
 preserveAspectRatio="xMidYMid meet">
<metadata>
Created by potrace 1.16, written by Peter Selinger 2001-2019
</metadata>
<g transform="translate(0.000000,96.000000) scale(0.100000,-0.100000)"
fill="#000000" stroke="none">
<path d="M100 860 c-19 -19 -20 -33 -20 -200 0 -233 -11 -220 180 -220 191 0
180 -13 180 220 0 233 11 220 -180 220 -127 0 -142 -2 -160 -20z m260 -200 l0
-140 -100 0 -100 0 0 140 0 140 100 0 100 0 0 -140z"/>
<path d="M540 860 c-17 -17 -20 -33 -20 -120 0 -141 -1 -140 180 -140 181 0
180 -1 180 140 0 141 1 140 -180 140 -127 0 -142 -2 -160 -20z m260 -120 l0
-60 -100 0 -100 0 0 60 0 60 100 0 100 0 0 -60z"/>
<path d="M540 500 c-19 -19 -20 -33 -20 -200 0 -233 -11 -220 180 -220 191 0
180 -13 180 220 0 233 11 220 -180 220 -127 0 -142 -2 -160 -20z m260 -200 l0
-140 -100 0 -100 0 0 140 0 140 100 0 100 0 0 -140z"/>
<path d="M100 340 c-17 -17 -20 -33 -20 -120 0 -141 -1 -140 180 -140 181 0
180 -1 180 140 0 141 1 140 -180 140 -127 0 -142 -2 -160 -20z m260 -120 l0
-60 -100 0 -100 0 0 60 0 60 100 0 100 0 0 -60z"/>
</g>
</svg>
