<?xml version="1.0" standalone="no"?>
<!DOCTYPE svg PUBLIC "-//W3C//DTD SVG 20010904//EN"
 "http://www.w3.org/TR/2001/REC-SVG-20010904/DTD/svg10.dtd">
<svg version="1.0" xmlns="http://www.w3.org/2000/svg"
 width="512.000000pt" height="512.000000pt" viewBox="0 0 512.000000 512.000000"
 preserveAspectRatio="xMidYMid meet">

<g transform="translate(0.000000,512.000000) scale(0.100000,-0.100000)"
fill="#000000" stroke="none">
<path d="M2486 4949 c-119 -17 -238 -94 -306 -197 -50 -76 -70 -158 -70 -288
0 -114 0 -114 -24 -114 -13 0 -34 -9 -47 -19 -21 -17 -24 -27 -22 -83 2 -74
36 -173 63 -188 10 -6 28 -10 39 -10 12 0 21 -5 21 -11 0 -25 80 -178 118
-226 85 -106 241 -192 323 -178 54 9 167 66 216 109 55 48 136 170 164 246 18
50 26 60 45 60 50 0 93 91 97 205 2 49 -1 59 -22 76 -13 10 -34 19 -47 19 -24
0 -24 0 -24 114 0 173 -38 275 -138 368 -104 97 -238 138 -386 117z"/>
<path d="M1985 3461 c-267 -107 -297 -122 -329 -163 -31 -42 -138 -384 -138
-443 0 -64 35 -119 97 -153 27 -15 112 -17 890 -20 473 -2 888 0 922 3 71 7
115 32 151 85 20 30 23 44 20 95 -6 86 -105 397 -140 440 -22 25 -62 47 -175
95 -149 63 -371 150 -384 150 -4 0 -51 -130 -105 -290 -53 -159 -99 -289 -100
-287 -2 1 -8 96 -14 210 l-11 208 41 73 c22 40 40 76 40 79 0 3 -21 -6 -47
-21 -43 -24 -58 -27 -143 -27 -79 0 -103 4 -139 23 -25 12 -46 22 -47 22 -2 0
15 -33 37 -74 l40 -74 -12 -208 c-6 -115 -12 -210 -13 -211 -1 -2 -47 128
-100 287 -54 160 -103 290 -110 290 -6 0 -110 -40 -231 -89z"/>
<path d="M2420 2083 l0 -368 -245 -245 -245 -245 103 -103 102 -102 210 210
c115 116 214 210 220 210 6 0 102 -92 215 -205 l205 -205 102 102 103 103
-240 240 -240 240 0 368 0 367 -145 0 -145 0 0 -367z"/>
<path d="M995 2434 c-138 -18 -251 -86 -323 -194 -59 -88 -76 -152 -75 -292
l1 -118 -29 0 c-66 0 -84 -61 -55 -184 17 -70 44 -109 80 -116 22 -4 32 -18
60 -82 61 -139 158 -247 274 -301 88 -41 144 -41 232 0 117 54 215 161 276
301 28 64 38 78 60 82 36 7 63 46 80 116 29 124 11 184 -57 184 l-30 0 6 83
c13 162 -30 291 -129 390 -60 60 -111 91 -185 112 -53 15 -143 24 -186 19z"/>
<path d="M4010 2431 c-81 -13 -127 -31 -188 -71 -146 -98 -213 -254 -197 -452
l7 -78 -31 0 c-18 0 -40 -9 -52 -21 -20 -20 -21 -29 -15 -95 9 -114 45 -184
93 -184 17 0 27 -7 30 -21 3 -11 23 -56 43 -99 78 -160 248 -295 374 -294 124
0 294 132 367 284 20 41 42 87 48 103 7 19 18 27 34 27 47 0 82 72 93 190 6
60 4 70 -15 89 -12 12 -34 21 -52 21 l-32 0 7 78 c17 197 -51 355 -195 451
-89 60 -216 88 -319 72z"/>
<path d="M645 1011 c-27 -10 -141 -56 -253 -101 -142 -59 -212 -93 -235 -115
-26 -26 -41 -59 -80 -181 -75 -238 -83 -275 -69 -321 15 -50 44 -88 85 -111
30 -16 99 -17 952 -17 910 0 920 0 955 21 42 25 77 74 86 122 8 42 2 69 -69
291 -43 136 -57 170 -84 196 -23 22 -91 56 -230 112 -218 89 -322 128 -326
122 -2 -2 -45 -131 -97 -286 -51 -156 -97 -283 -100 -283 -4 0 -11 92 -15 205
l-7 206 37 70 c20 39 35 72 33 74 -2 3 -24 -6 -49 -18 -63 -31 -203 -32 -271
0 l-48 22 36 -72 36 -71 -7 -216 c-9 -257 0 -265 -126 115 -46 140 -88 255
-94 254 -5 0 -32 -8 -60 -18z"/>
<path d="M3675 1011 c-27 -10 -141 -56 -253 -101 -142 -59 -212 -93 -235 -115
-27 -26 -41 -60 -84 -196 -71 -222 -77 -249 -69 -291 9 -52 45 -100 91 -123
39 -20 60 -20 950 -20 903 0 910 0 950 21 74 39 108 119 86 204 -6 25 -35 119
-64 209 -42 135 -57 170 -83 195 -21 21 -91 55 -207 104 -195 80 -346 137
-350 131 -2 -2 -45 -131 -97 -286 -52 -156 -97 -283 -101 -283 -4 0 -10 93
-14 208 l-7 207 37 68 c21 37 35 70 33 72 -2 3 -24 -6 -49 -18 -63 -32 -203
-32 -272 0 -27 13 -47 19 -45 15 2 -4 18 -36 37 -71 l33 -65 -7 -215 c-10
-258 0 -266 -126 114 -46 140 -88 255 -94 254 -5 0 -32 -8 -60 -18z"/>
</g>
</svg>
