<?xml version="1.0" standalone="no"?>
<!DOCTYPE svg PUBLIC "-//W3C//DTD SVG 20010904//EN"
 "http://www.w3.org/TR/2001/REC-SVG-20010904/DTD/svg10.dtd">
<svg version="1.0" xmlns="http://www.w3.org/2000/svg"
 width="512.000000pt" height="512.000000pt" viewBox="0 0 512.000000 512.000000"
 preserveAspectRatio="xMidYMid meet">

<g transform="translate(0.000000,512.000000) scale(0.100000,-0.100000)"
fill="#000000" stroke="none">
<path d="M413 5106 c-191 -47 -353 -209 -398 -397 -13 -56 -15 -290 -15 -1829
0 -1945 -3 -1829 62 -1954 41 -78 146 -183 224 -224 121 -63 99 -62 1079 -62
864 0 891 1 922 20 41 25 58 79 39 124 -27 65 40 61 -955 66 l-906 5 -67 33
c-76 37 -120 82 -157 162 l-26 55 0 1775 0 1775 26 55 c37 80 81 125 157 162
l67 33 1350 0 1350 0 56 -26 c69 -33 127 -89 160 -155 l24 -49 5 -630 c5 -680
4 -661 60 -690 37 -19 63 -19 101 1 59 30 59 27 59 661 0 329 -5 608 -10 648
-13 86 -71 211 -128 276 -54 61 -134 114 -218 147 l-69 27 -1370 2 c-1082 1
-1381 -1 -1422 -11z"/>
<path d="M703 4255 c-33 -14 -63 -59 -63 -95 0 -37 30 -81 65 -96 51 -21 1099
-21 1150 0 35 15 65 59 65 96 0 37 -30 81 -65 96 -50 21 -1104 20 -1152 -1z"/>
<path d="M693 3398 c-57 -28 -67 -122 -17 -169 l26 -24 1099 -3 c1223 -3 1145
-7 1175 65 19 43 5 93 -33 123 -25 20 -37 20 -1127 19 -741 0 -1108 -4 -1123
-11z"/>
<path d="M3220 2784 c-535 -180 -608 -208 -633 -235 l-28 -31 4 -556 c4 -609
4 -602 68 -796 143 -429 523 -827 1051 -1100 75 -39 140 -66 158 -66 40 0 248
107 397 205 415 272 692 600 812 961 64 194 64 187 68 796 l4 556 -28 31 c-25
28 -96 54 -636 236 -335 113 -614 205 -620 204 -7 0 -284 -92 -617 -205z
m1164 -200 l526 -178 0 -412 c0 -227 -5 -457 -10 -513 -24 -235 -124 -459
-301 -677 -154 -190 -441 -416 -686 -542 l-73 -37 -87 45 c-198 103 -423 271
-579 432 -236 244 -365 499 -394 779 -5 56 -10 286 -10 513 l0 412 518 173
c284 96 524 178 532 182 8 5 20 7 26 5 6 -3 248 -84 538 -182z"/>
<path d="M4435 2014 c-16 -8 -180 -164 -362 -347 -204 -203 -336 -328 -341
-322 -5 6 -82 102 -172 215 -89 113 -173 215 -187 228 -44 40 -125 25 -157
-30 -35 -59 -25 -77 224 -387 126 -159 237 -292 246 -295 36 -14 82 -5 120 23
21 16 204 195 405 397 396 399 396 399 363 469 -15 31 -64 65 -96 65 -7 0 -26
-7 -43 -16z"/>
<path d="M710 2553 c-81 -30 -90 -157 -14 -192 18 -8 224 -11 700 -11 l676 0
29 29 c48 49 34 142 -26 169 -19 9 -195 12 -688 11 -364 0 -669 -3 -677 -6z"/>
</g>
</svg>
