<?xml version="1.0" standalone="no"?>
<!DOCTYPE svg PUBLIC "-//W3C//DTD SVG 20010904//EN"
 "http://www.w3.org/TR/2001/REC-SVG-20010904/DTD/svg10.dtd">
<svg version="1.0" xmlns="http://www.w3.org/2000/svg"
 width="512.000000pt" height="512.000000pt" viewBox="0 0 512.000000 512.000000"
 preserveAspectRatio="xMidYMid meet">

<g transform="translate(0.000000,512.000000) scale(0.100000,-0.100000)"
fill="#000000" stroke="none">
<path d="M383 4706 c-181 -44 -334 -202 -372 -384 -15 -75 -15 -2529 0 -2604
29 -137 140 -284 259 -341 121 -58 99 -57 1022 -57 l848 0 0 -290 0 -290 -210
0 c-163 0 -217 -3 -239 -14 -66 -35 -66 -137 0 -172 42 -21 1696 -21 1738 0
66 35 66 137 0 172 -22 11 -76 14 -239 14 l-210 0 0 290 0 290 253 0 252 0
163 -283 c193 -335 206 -355 274 -426 97 -99 221 -167 360 -195 156 -32 296
-13 448 61 79 38 109 60 181 132 72 72 94 102 132 181 101 207 102 409 3 616
l-44 92 33 47 c19 26 44 75 57 108 l23 62 3 1279 c3 1398 5 1331 -55 1456 -57
119 -204 230 -341 259 -81 17 -4268 14 -4339 -3z m4358 -212 c66 -31 114 -78
146 -142 l28 -57 0 -1275 c0 -1019 -3 -1281 -13 -1304 -13 -29 -13 -29 -117
152 l-105 181 0 1086 c0 1180 3 1127 -55 1153 -19 9 -228 12 -831 12 -874 0
-846 2 -872 -55 -15 -33 -15 -57 0 -90 26 -57 3 -55 813 -55 l745 0 0 -852 0
-853 -86 150 c-98 171 -105 180 -158 207 -30 15 -53 19 -95 16 -52 -4 -89 -23
-486 -253 -236 -136 -453 -263 -481 -281 -87 -55 -116 -150 -74 -243 11 -24
20 -45 20 -47 0 -2 -558 -4 -1240 -4 l-1240 0 0 1080 0 1080 745 0 c555 0 751
3 770 12 29 13 55 55 55 88 0 33 -26 75 -55 88 -19 9 -228 12 -831 12 -874 0
-846 2 -872 -55 -9 -20 -12 -317 -12 -1226 0 -1283 -2 -1242 47 -1265 10 -5
634 -11 1388 -14 l1370 -5 62 -108 62 -107 -1472 2 -1472 3 -46 21 c-66 31
-114 78 -146 142 l-28 57 -3 1245 c-2 880 0 1260 8 1296 22 101 93 181 193
216 49 17 157 17 2172 15 l2120 -2 46 -21z m-225 -2559 c196 -341 366 -645
378 -675 27 -75 29 -231 2 -310 -85 -251 -344 -398 -591 -335 -98 25 -165 64
-235 134 -58 59 -103 131 -422 687 -197 342 -358 625 -358 630 1 12 853 503
861 495 4 -3 168 -285 365 -626z m-1736 -905 l0 -290 -220 0 -220 0 0 290 0
290 220 0 220 0 0 -290z"/>
<path d="M2511 4286 c-87 -48 -50 -186 49 -186 51 0 100 49 100 99 0 75 -83
124 -149 87z"/>
<path d="M3350 3541 c-279 -61 -525 -250 -650 -501 -90 -179 -91 -271 -5 -300
42 -14 100 8 115 42 5 13 23 59 40 102 69 177 195 314 365 396 55 27 132 56
172 64 89 20 226 20 317 1 107 -23 156 6 156 93 0 81 -75 112 -285 118 -111 3
-158 0 -225 -15z"/>
<path d="M3433 3086 c-138 -35 -264 -136 -323 -260 -52 -111 -41 -181 34 -206
60 -20 94 5 141 102 66 135 159 187 314 173 73 -6 79 -5 108 19 58 49 46 133
-24 163 -50 21 -185 26 -250 9z"/>
<path d="M3979 2221 c-79 -80 10 -208 109 -157 38 20 52 44 52 91 0 51 -44 95
-95 95 -27 0 -44 -8 -66 -29z"/>
<path d="M3654 2040 c-73 -29 -69 -149 5 -180 85 -35 172 60 125 138 -27 47
-78 63 -130 42z"/>
<path d="M4176 1874 c-36 -37 -37 -101 -1 -137 65 -64 165 -23 165 68 0 59
-36 95 -95 95 -32 0 -48 -6 -69 -26z"/>
<path d="M3829 1671 c-72 -73 2 -189 101 -157 44 14 77 69 66 110 -19 77 -111
103 -167 47z"/>
<path d="M4327 1386 c-122 -44 -207 -162 -207 -286 0 -107 70 -219 167 -266
82 -41 183 -41 265 -1 109 53 163 143 163 272 0 70 -4 87 -30 134 -16 29 -47
68 -69 87 -77 66 -200 91 -289 60z m142 -200 c91 -47 50 -186 -55 -186 -37 0
-94 60 -94 97 1 79 78 125 149 89z"/>
</g>
</svg>
