<?xml version="1.0" standalone="no"?>
<!DOCTYPE svg PUBLIC "-//W3C//DTD SVG 20010904//EN"
 "http://www.w3.org/TR/2001/REC-SVG-20010904/DTD/svg10.dtd">
<svg version="1.0" xmlns="http://www.w3.org/2000/svg"
 width="512.000000pt" height="512.000000pt" viewBox="0 0 512.000000 512.000000"
 preserveAspectRatio="xMidYMid meet">

<g transform="translate(0.000000,512.000000) scale(0.100000,-0.100000)"
fill="#000000" stroke="none">
<path d="M3580 3933 c-239 -449 -442 -827 -450 -840 -11 -17 -59 -43 -165 -89
-82 -35 -155 -64 -161 -64 -6 0 -160 402 -343 893 -183 490 -336 895 -340 900
-4 4 -286 -720 -627 -1610 l-619 -1618 -79 -85 c-238 -259 -552 -665 -724
-938 l-71 -112 483 0 484 0 104 197 104 198 137 3 c91 2 137 -1 137 -8 0 -6
-21 -52 -46 -102 -50 -100 -124 -266 -124 -280 0 -4 238 -8 528 -8 l529 0 27
127 c74 347 215 760 362 1056 55 111 158 297 165 297 3 0 77 -243 165 -540
l158 -540 193 0 c106 0 193 3 193 6 0 3 -115 314 -256 690 -167 449 -252 689
-246 697 255 337 552 612 890 826 134 85 339 194 345 184 2 -4 94 -374 203
-820 l199 -813 194 0 c180 0 193 1 186 17 -9 24 -585 1706 -585 1709 0 2 17 9
165 63 l110 40 -156 0 -156 1 -233 683 c-128 375 -236 685 -239 689 -3 3 -202
-361 -441 -809z m568 0 c77 -317 140 -578 139 -579 -1 -1 -72 -12 -157 -24
-185 -25 -389 -67 -558 -113 -100 -28 -122 -31 -117 -18 51 131 541 1311 545
1311 3 0 70 -260 148 -577z m-1783 -277 c129 -439 235 -804 235 -810 0 -6 -25
-24 -55 -39 -345 -181 -808 -502 -1137 -790 l-68 -59 13 44 c8 24 182 594 387
1267 264 862 377 1218 382 1205 5 -11 114 -379 243 -818z m1874 -380 c-2 -2
-47 -20 -99 -41 -52 -20 -151 -66 -220 -101 -114 -57 -128 -62 -165 -55 l-40
8 70 32 c39 18 93 42 120 53 132 54 356 124 334 104z m-691 -334 c20 -6 12
-13 -58 -55 -44 -26 -146 -95 -227 -153 l-146 -105 -51 22 c-28 11 -54 24 -58
28 -4 4 92 66 215 139 231 136 252 144 325 124z m-820 -514 l20 -68 -71 -52
c-39 -29 -102 -79 -140 -110 l-69 -58 -121 0 c-66 0 -118 2 -115 5 14 14 472
355 474 352 1 -1 11 -32 22 -69z m-668 -713 c0 -3 -42 -60 -92 -128 -51 -67
-124 -168 -162 -225 l-70 -102 -128 0 c-70 0 -128 2 -128 4 0 3 143 193 290
384 l55 71 118 1 c64 0 117 -2 117 -5z"/>
</g>
</svg>
