<?xml version="1.0" standalone="no"?>
<!DOCTYPE svg PUBLIC "-//W3C//DTD SVG 20010904//EN"
 "http://www.w3.org/TR/2001/REC-SVG-20010904/DTD/svg10.dtd">
<svg version="1.0" xmlns="http://www.w3.org/2000/svg"
 width="512.000000pt" height="512.000000pt" viewBox="0 0 512.000000 512.000000"
 preserveAspectRatio="xMidYMid meet">

<g transform="translate(0.000000,512.000000) scale(0.100000,-0.100000)"
fill="#000000" stroke="none">
<path d="M2205 4848 c-54 -150 -103 -278 -109 -284 -6 -6 -33 -17 -61 -23
-118 -29 -362 -136 -500 -221 -36 -22 -70 -40 -75 -40 -6 0 -130 57 -275 126
l-264 126 -179 -167 -179 -167 128 -269 128 -268 -41 -73 c-83 -147 -180 -394
-204 -522 -3 -20 -11 -39 -18 -44 -6 -5 -134 -53 -283 -107 l-273 -98 0 -257
0 -257 273 -98 c149 -54 277 -103 284 -109 6 -6 21 -47 33 -91 33 -125 89
-268 161 -414 l67 -135 -128 -267 -127 -267 179 -180 180 -179 269 128 269
129 65 -40 c145 -89 369 -188 507 -225 l67 -18 29 -76 c16 -42 62 -163 102
-268 l74 -193 256 0 257 0 98 272 c54 150 103 278 109 285 6 6 61 26 121 43
61 18 114 35 119 38 4 2 -83 96 -195 209 -161 160 -208 203 -224 198 -11 -2
-83 -10 -159 -15 -461 -36 -897 127 -1221 454 -287 290 -437 660 -436 1076 0
200 26 347 94 537 108 299 342 583 629 766 375 238 859 295 1295 152 672 -221
1117 -899 1032 -1575 l-10 -84 218 -218 218 -218 22 67 c12 38 24 84 27 104
l6 35 280 89 280 89 0 256 0 256 -282 90 -281 89 -27 95 c-49 172 -126 350
-219 509 -17 28 -31 56 -31 62 0 5 56 128 125 272 l125 262 -178 178 c-97 97
-181 177 -187 177 -5 -1 -127 -57 -270 -125 l-260 -124 -65 36 c-156 88 -306
149 -470 192 l-105 28 -89 281 -90 282 -256 0 -257 0 -98 -272z"/>
<path d="M2390 3603 c-41 -8 -77 -16 -79 -19 -3 -2 113 -122 256 -267 270
-271 288 -294 328 -417 27 -81 25 -226 -5 -305 -13 -33 -35 -78 -50 -100 -48
-70 -155 -164 -222 -195 -146 -69 -354 -55 -480 31 -21 14 -150 132 -287 262
-213 201 -271 251 -271 234 0 -1 -7 -34 -15 -72 -24 -112 -20 -290 9 -408 74
-293 280 -549 551 -681 117 -57 206 -83 336 -98 91 -10 124 -9 220 4 63 9 148
28 189 42 l75 25 780 -779 c611 -609 791 -784 831 -803 145 -72 302 -48 431
67 130 117 158 306 71 481 -13 26 -291 311 -785 806 l-765 767 25 63 c46 117
62 212 61 364 0 110 -5 157 -22 220 -62 234 -184 427 -357 565 -135 107 -300
186 -454 214 -102 20 -270 19 -371 -1z"/>
</g>
</svg>
