<?xml version="1.0" standalone="no"?>
<!DOCTYPE svg PUBLIC "-//W3C//DTD SVG 20010904//EN"
 "http://www.w3.org/TR/2001/REC-SVG-20010904/DTD/svg10.dtd">
<svg version="1.0" xmlns="http://www.w3.org/2000/svg"
 width="512.000000pt" height="512.000000pt" viewBox="0 0 512.000000 512.000000"
 preserveAspectRatio="xMidYMid meet">

<g transform="translate(0.000000,512.000000) scale(0.100000,-0.100000)"
fill="#000000" stroke="none">
<path d="M2108 4627 l-3 -494 -739 374 -738 373 -302 -112 c-165 -61 -305
-115 -309 -119 -10 -8 160 -618 177 -635 6 -6 296 -155 643 -330 348 -176 633
-322 633 -325 0 -4 -289 -152 -642 -330 l-641 -324 -89 -310 c-48 -170 -86
-315 -84 -321 2 -5 141 -61 307 -124 l304 -113 737 372 c405 204 739 371 742
371 3 0 6 -94 6 -208 l0 -208 -957 -483 c-527 -266 -960 -488 -963 -492 -10
-14 -183 -629 -179 -633 8 -7 604 -226 615 -226 7 0 341 166 744 370 402 203
733 370 736 370 2 0 4 -241 4 -535 l0 -535 450 0 450 0 0 535 c0 294 2 535 5
535 2 0 334 -167 737 -370 403 -203 738 -370 745 -370 12 0 603 219 612 226 4
4 -169 619 -179 633 -3 4 -436 226 -962 492 l-958 484 0 208 c0 114 3 207 6
207 4 0 338 -167 743 -372 l736 -371 303 113 c167 62 306 118 308 124 2 6 -36
151 -84 321 l-89 310 -641 324 c-353 178 -642 327 -642 330 0 3 286 150 636
326 349 176 639 325 643 330 16 20 183 627 174 635 -4 4 -143 57 -308 119
l-300 111 -740 -374 -740 -373 -3 493 -2 494 -450 0 -450 0 -2 -493z m602
-227 l0 -420 -75 -37 -75 -37 -75 37 -75 37 0 420 0 420 150 0 150 0 0 -420z
m-1301 -251 c438 -221 800 -405 805 -410 5 -4 -83 -54 -196 -110 l-205 -102
-679 343 c-373 188 -683 346 -687 350 -9 8 -79 242 -74 245 6 5 223 84 231 84
5 1 367 -180 805 -400z m3223 359 c62 -23 114 -42 115 -43 5 -3 -65 -237 -74
-245 -16 -15 -4053 -2050 -4066 -2050 -12 0 -227 77 -234 84 -2 2 65 238 69
242 2 1 647 327 1433 725 787 397 1700 858 2030 1025 330 167 603 304 607 304
4 0 58 -19 120 -42z m-1138 -1412 c100 -51 402 -204 671 -340 270 -135 496
-250 503 -254 11 -7 85 -242 78 -249 -6 -7 -220 -83 -233 -83 -12 0 -735 362
-1352 678 l-265 135 205 103 c112 57 206 103 208 103 2 1 86 -41 185 -93z
m-854 -321 l70 -35 0 -210 c0 -116 -2 -210 -5 -210 -3 0 -37 16 -75 35 l-70
35 -70 -35 c-38 -19 -72 -35 -75 -35 -3 0 -5 94 -5 209 l0 208 68 36 c37 20
73 37 80 37 7 0 44 -16 82 -35z m983 -1256 c579 -293 1053 -533 1055 -534 5
-4 71 -240 67 -243 -1 -2 -54 -23 -116 -47 l-114 -43 -825 415 c-454 229 -893
451 -975 494 l-151 78 -978 -493 -978 -493 -115 42 c-63 24 -116 45 -118 47
-4 3 62 239 67 243 2 1 359 182 793 401 435 219 907 458 1050 531 143 73 266
133 273 133 7 0 487 -239 1065 -531z m-988 -256 l75 -37 0 -463 0 -463 -150 0
-150 0 0 463 0 463 73 36 c39 20 73 37 74 37 2 1 36 -16 78 -36z"/>
</g>
</svg>
