<?xml version="1.0" standalone="no"?>
<!DOCTYPE svg PUBLIC "-//W3C//DTD SVG 20010904//EN"
 "http://www.w3.org/TR/2001/REC-SVG-20010904/DTD/svg10.dtd">
<svg version="1.0" xmlns="http://www.w3.org/2000/svg"
 width="512.000000pt" height="512.000000pt" viewBox="0 0 512.000000 512.000000"
 preserveAspectRatio="xMidYMid meet">

<g transform="translate(0.000000,512.000000) scale(0.100000,-0.100000)"
fill="#000000" stroke="none">
<path d="M600 4815 l0 -305 -300 0 -300 0 0 -450 0 -450 300 0 300 0 0 -300 0
-300 -300 0 -300 0 0 -450 0 -450 300 0 300 0 0 -300 0 -300 -300 0 -300 0 0
-450 0 -450 300 0 300 0 0 -305 0 -305 450 0 450 0 0 305 0 305 1060 0 1060 0
0 -305 0 -305 450 0 450 0 0 305 0 305 300 0 300 0 0 450 0 450 -300 0 -300 0
0 300 0 300 300 0 300 0 0 450 0 450 -300 0 -300 0 0 300 0 300 300 0 300 0 0
450 0 450 -300 0 -300 0 0 305 0 305 -450 0 -450 0 0 -305 0 -305 -1060 0
-1060 0 0 305 0 305 -450 0 -450 0 0 -305z m600 -2255 l0 -2260 -150 0 -150 0
0 2260 0 2260 150 0 150 0 0 -2260z m3020 0 l0 -2260 -150 0 -150 0 0 2260 0
2260 150 0 150 0 0 -2260z m-3620 1500 l0 -150 -150 0 -150 0 0 150 0 150 150
0 150 0 0 -150z m3020 0 l0 -150 -1060 0 -1060 0 0 150 0 150 1060 0 1060 0 0
-150z m1200 0 l0 -150 -150 0 -150 0 0 150 0 150 150 0 150 0 0 -150z m-1200
-750 l0 -300 -1060 0 -1060 0 0 300 0 300 1060 0 1060 0 0 -300z m-3020 -750
l0 -150 -150 0 -150 0 0 150 0 150 150 0 150 0 0 -150z m3020 0 l0 -150 -1060
0 -1060 0 0 150 0 150 1060 0 1060 0 0 -150z m1200 0 l0 -150 -150 0 -150 0 0
150 0 150 150 0 150 0 0 -150z m-1200 -750 l0 -300 -1060 0 -1060 0 0 300 0
300 1060 0 1060 0 0 -300z m-3020 -750 l0 -150 -150 0 -150 0 0 150 0 150 150
0 150 0 0 -150z m3020 0 l0 -150 -1060 0 -1060 0 0 150 0 150 1060 0 1060 0 0
-150z m1200 0 l0 -150 -150 0 -150 0 0 150 0 150 150 0 150 0 0 -150z"/>
</g>
</svg>
