<?xml version="1.0" standalone="no"?>
<!DOCTYPE svg PUBLIC "-//W3C//DTD SVG 20010904//EN"
 "http://www.w3.org/TR/2001/REC-SVG-20010904/DTD/svg10.dtd">
<svg version="1.0" xmlns="http://www.w3.org/2000/svg"
 width="512.000000pt" height="512.000000pt" viewBox="0 0 512.000000 512.000000"
 preserveAspectRatio="xMidYMid meet">

<g transform="translate(0.000000,512.000000) scale(0.100000,-0.100000)"
fill="#000000" stroke="none">
<path d="M160 4880 l0 -80 80 0 80 0 0 80 0 80 -80 0 -80 0 0 -80z"/>
<path d="M2500 4953 c-409 -44 -781 -274 -1005 -621 -251 -390 -283 -894 -84
-1311 114 -240 282 -430 504 -573 39 -24 120 -68 128 -68 6 0 71 140 66 143
-2 2 -31 18 -64 37 -385 212 -622 643 -601 1090 14 313 130 576 350 796 174
174 386 287 631 335 103 21 349 18 455 -5 362 -78 668 -314 834 -643 86 -173
119 -317 120 -528 0 -223 -30 -357 -126 -550 -99 -200 -295 -403 -480 -500
-32 -17 -58 -34 -58 -38 0 -7 58 -127 65 -135 6 -7 92 42 180 101 278 188 483
498 557 840 29 135 31 398 5 529 -90 449 -388 818 -806 999 -201 86 -456 125
-671 102z"/>
<path d="M4800 4880 l0 -80 80 0 80 0 0 80 0 80 -80 0 -80 0 0 -80z"/>
<path d="M2546 4630 c-63 -16 -153 -70 -197 -117 -22 -24 -55 -74 -72 -111
-29 -61 -32 -76 -32 -163 0 -89 2 -100 35 -165 l35 -71 -50 -11 c-88 -21 -121
-53 -227 -222 -53 -85 -102 -174 -109 -198 -22 -79 -9 -117 156 -434 l155
-299 0 -460 0 -459 -173 0 c-245 0 -279 -14 -371 -159 -177 -275 -443 -585
-685 -795 -53 -46 -259 -214 -458 -374 l-363 -290 47 -59 c26 -32 48 -60 49
-62 5 -5 778 615 860 689 38 35 99 93 135 128 l66 63 109 -192 c60 -105 122
-205 137 -220 15 -16 46 -33 68 -39 75 -20 101 -5 341 200 122 105 224 190
228 190 3 0 74 -83 159 -184 97 -118 165 -190 186 -200 38 -19 92 -21 132 -5
15 6 115 96 221 202 l192 191 193 -191 c105 -106 205 -196 220 -202 41 -16 91
-13 132 6 24 11 80 70 168 177 72 88 137 167 143 175 10 12 29 -2 120 -86 60
-56 267 -237 459 -402 l350 -301 52 58 c29 31 51 60 50 63 -1 4 -164 145 -362
314 -549 469 -754 685 -1003 1059 -63 94 -126 181 -141 193 -52 44 -102 53
-288 53 l-173 0 0 459 0 459 155 299 c165 319 178 356 156 435 -7 24 -56 113
-109 198 -106 169 -139 201 -227 222 l-50 11 35 71 c33 65 35 76 35 166 0 91
-2 100 -37 172 -68 136 -188 217 -336 224 -42 2 -94 -1 -116 -6z m168 -162
c86 -26 166 -136 166 -228 0 -124 -116 -240 -240 -240 -124 0 -240 116 -240
240 0 63 23 114 75 165 70 71 145 90 239 63z m305 -655 c35 -36 181 -275 181
-297 0 -9 -35 -85 -77 -169 l-78 -152 -3 203 -2 202 -80 0 -80 0 0 -840 0
-840 -80 0 -80 0 0 480 0 480 -80 0 -80 0 0 -480 0 -480 -80 0 -80 0 0 840 0
840 -80 0 -80 0 -2 -202 -3 -203 -77 152 c-43 84 -78 160 -78 169 0 22 146
261 181 297 l27 27 352 0 352 0 27 -27z m366 -2059 c9 -4 54 -64 100 -135 100
-153 193 -278 309 -416 l86 -103 -142 -170 -142 -171 -190 190 c-105 104 -201
194 -213 200 -28 14 -118 14 -146 0 -12 -6 -108 -96 -213 -201 l-190 -189
-158 190 c-94 112 -168 193 -184 199 -101 39 -113 33 -372 -189 -138 -117
-227 -186 -232 -181 -6 6 -61 99 -123 208 l-114 199 22 27 c149 182 213 266
297 390 55 80 106 149 112 151 19 8 1474 8 1493 1z"/>
<path d="M507 4538 c-14 -13 -35 -54 -48 -93 -33 -96 -88 -151 -184 -184 -79
-26 -115 -58 -115 -101 0 -43 36 -74 123 -105 96 -34 141 -80 176 -181 26 -78
58 -114 101 -114 43 0 74 36 105 123 34 96 80 141 181 176 78 26 114 58 114
101 0 43 -36 75 -114 101 -101 35 -147 80 -181 176 -31 87 -62 123 -105 123
-16 0 -40 -10 -53 -22z m107 -323 l55 -55 -55 -54 -54 -55 -54 55 -55 54 52
54 c29 30 53 54 54 55 1 1 26 -24 57 -54z"/>
<path d="M4347 3018 c-14 -13 -35 -54 -48 -93 -33 -96 -88 -151 -184 -184 -79
-26 -115 -58 -115 -101 0 -43 36 -74 123 -105 96 -34 141 -80 176 -181 26 -78
58 -114 101 -114 43 0 74 36 105 123 34 96 80 141 181 176 78 26 114 58 114
101 0 43 -36 75 -114 101 -101 35 -147 80 -181 176 -31 87 -62 123 -105 123
-16 0 -40 -10 -53 -22z m107 -323 l55 -55 -55 -54 -54 -55 -54 55 -55 54 52
54 c29 30 53 54 54 55 1 1 26 -24 57 -54z"/>
<path d="M1040 2320 l0 -80 80 0 80 0 0 80 0 80 -80 0 -80 0 0 -80z"/>
<path d="M400 1440 l0 -80 80 0 80 0 0 80 0 80 -80 0 -80 0 0 -80z"/>
<path d="M4560 1280 l0 -80 80 0 80 0 0 80 0 80 -80 0 -80 0 0 -80z"/>
</g>
</svg>
