<?xml version="1.0" standalone="no"?>
<!DOCTYPE svg PUBLIC "-//W3C//DTD SVG 20010904//EN"
 "http://www.w3.org/TR/2001/REC-SVG-20010904/DTD/svg10.dtd">
<svg version="1.0" xmlns="http://www.w3.org/2000/svg"
 width="512.000000pt" height="512.000000pt" viewBox="0 0 512.000000 512.000000"
 preserveAspectRatio="xMidYMid meet">

<g transform="translate(0.000000,512.000000) scale(0.100000,-0.100000)"
fill="#000000" stroke="none">
<path d="M245 5111 c-90 -22 -172 -90 -215 -176 l-25 -50 0 -405 0 -405 34
-63 c38 -70 69 -100 145 -140 l51 -27 2325 0 2325 0 51 27 c76 40 107 70 145
140 l34 63 0 405 0 405 -34 63 c-38 70 -69 100 -145 140 l-51 27 -2305 2
c-1268 0 -2318 -2 -2335 -6z m4600 -217 c63 -29 65 -44 65 -414 0 -370 -2
-385 -65 -414 -30 -14 -255 -16 -2285 -16 -2497 0 -2301 -5 -2334 65 -24 49
-24 681 0 730 33 70 -164 65 2332 65 2032 0 2257 -2 2287 -16z"/>
<path d="M245 3191 c-90 -22 -172 -90 -215 -176 l-25 -50 0 -405 0 -405 34
-63 c38 -70 69 -100 145 -140 l51 -27 2325 0 2325 0 51 27 c76 40 107 70 145
140 l34 63 0 405 0 405 -34 63 c-38 70 -69 100 -145 140 l-51 27 -2305 2
c-1268 0 -2318 -2 -2335 -6z m4600 -217 c63 -29 65 -44 65 -414 0 -370 -2
-385 -65 -414 -30 -14 -255 -16 -2285 -16 -2497 0 -2301 -5 -2334 65 -24 49
-24 681 0 730 33 70 -164 65 2332 65 2032 0 2257 -2 2287 -16z"/>
<path d="M245 1271 c-90 -22 -172 -90 -215 -176 l-25 -50 0 -405 0 -405 34
-63 c38 -70 69 -100 145 -140 l51 -27 935 0 935 0 53 24 c68 31 144 113 169
183 16 48 18 90 18 428 0 338 -2 380 -18 428 -25 70 -101 152 -169 183 l-53
24 -915 2 c-503 0 -928 -2 -945 -6z m1819 -215 c67 -28 66 -22 66 -416 0 -313
-2 -358 -16 -379 -37 -52 -18 -51 -945 -51 -955 0 -911 -3 -943 65 -24 49 -24
681 0 730 32 68 -14 65 942 65 715 0 868 -2 896 -14z"/>
<path d="M3005 1266 c-65 -21 -99 -42 -142 -89 -51 -55 -67 -86 -82 -155 -15
-71 -15 -692 0 -764 21 -103 100 -198 195 -234 47 -18 88 -19 979 -19 l930 0
51 27 c76 40 107 70 145 140 l34 63 0 405 0 405 -34 63 c-38 70 -69 100 -145
140 l-51 27 -920 2 c-724 2 -929 -1 -960 -11z m1840 -212 c63 -29 65 -44 65
-414 0 -282 -2 -337 -16 -365 -32 -68 12 -65 -943 -65 -927 0 -908 -1 -945 51
-14 21 -16 66 -16 379 0 312 2 358 16 379 36 51 16 50 942 51 767 0 868 -2
897 -16z"/>
</g>
</svg>
