<?xml version="1.0" standalone="no"?>
<!DOCTYPE svg PUBLIC "-//W3C//DTD SVG 20010904//EN"
 "http://www.w3.org/TR/2001/REC-SVG-20010904/DTD/svg10.dtd">
<svg version="1.0" xmlns="http://www.w3.org/2000/svg"
 width="512.000000pt" height="512.000000pt" viewBox="0 0 512.000000 512.000000"
 preserveAspectRatio="xMidYMid meet">

<g transform="translate(0.000000,512.000000) scale(0.100000,-0.100000)"
fill="#000000" stroke="none">
<path d="M1385 4056 c-643 -409 -1192 -763 -1218 -786 -211 -186 -219 -530
-18 -727 140 -139 351 -188 522 -123 30 11 57 20 62 20 4 0 7 -477 7 -1060 l0
-1060 1820 0 1820 0 0 1060 c0 583 4 1060 8 1060 4 0 34 -9 67 -21 276 -97
582 76 651 367 40 170 -23 368 -154 485 -39 35 -2364 1519 -2390 1526 -4 1
-533 -333 -1177 -741z m2256 -297 c591 -375 1087 -691 1103 -702 36 -26 76
-110 76 -162 -1 -110 -100 -205 -216 -205 -17 0 -55 13 -85 28 -30 15 -481
303 -1002 640 -521 337 -952 612 -957 612 -5 0 -436 -275 -957 -612 -521 -337
-972 -625 -1002 -640 -82 -42 -161 -34 -228 25 -73 64 -91 153 -48 245 22 47
35 59 117 112 498 320 2106 1338 2114 1339 6 1 495 -306 1085 -680z m-325
-628 l759 -489 3 -1011 2 -1011 -410 0 -410 0 0 800 0 800 -700 0 -700 0 0
-800 0 -800 -410 0 -410 0 2 1011 3 1011 755 488 c415 268 756 489 756 489 1
1 343 -219 760 -488z m-356 -1861 l0 -650 -400 0 -400 0 0 650 0 650 400 0
400 0 0 -650z"/>
</g>
</svg>
