<?xml version="1.0" standalone="no"?>
<!DOCTYPE svg PUBLIC "-//W3C//DTD SVG 20010904//EN"
 "http://www.w3.org/TR/2001/REC-SVG-20010904/DTD/svg10.dtd">
<svg version="1.0" xmlns="http://www.w3.org/2000/svg"
 width="512.000000pt" height="512.000000pt" viewBox="0 0 512.000000 512.000000"
 preserveAspectRatio="xMidYMid meet">

<g transform="translate(0.000000,512.000000) scale(0.100000,-0.100000)"
fill="#000000" stroke="none">
<path d="M1955 5109 c-291 -19 -717 -82 -832 -124 -97 -35 -171 -83 -253 -165
-86 -86 -139 -171 -178 -285 l-27 -80 -3 -1568 c-3 -1723 -6 -1631 58 -1757
17 -33 57 -87 88 -118 83 -83 156 -121 282 -147 l55 -11 -338 -347 c-185 -190
-342 -359 -348 -373 -14 -39 -2 -80 33 -109 l30 -25 387 0 c368 0 390 1 413
19 13 11 93 114 177 230 l152 211 914 0 914 0 152 -211 c84 -116 164 -219 177
-230 23 -18 45 -19 407 -19 375 0 383 0 409 21 34 27 49 64 41 101 -5 20 -112
138 -345 381 -377 393 -350 350 -235 377 154 35 286 158 351 326 18 47 19 110
22 1614 3 1766 8 1649 -74 1819 -38 77 -60 108 -127 175 -91 90 -161 136 -264
171 -136 47 -542 105 -866 125 -204 12 -979 11 -1172 -1z m1165 -199 c279 -17
656 -68 785 -106 118 -34 234 -130 292 -240 67 -126 64 -32 61 -1736 l-3
-1543 -21 -46 c-28 -60 -93 -125 -153 -153 l-46 -21 -1475 0 -1475 0 -46 21
c-60 28 -119 87 -150 150 l-24 49 -3 1530 c-2 1106 1 1549 9 1598 30 180 172
342 344 391 126 37 508 90 745 105 198 12 968 13 1160 1z m-1437 -4064 c-4 -7
-111 -156 -237 -330 l-230 -316 -214 0 -214 0 253 260 c140 144 283 292 317
330 l64 70 134 0 c111 0 134 -2 127 -14z m1577 -83 l71 -98 -380 -3 c-209 -1
-553 -1 -766 0 l-386 3 71 98 71 97 624 0 624 0 71 -97z m670 -140 c124 -129
265 -278 313 -329 l89 -94 -209 0 -209 0 -230 316 c-126 174 -233 323 -237
330 -7 12 16 14 125 14 l133 -1 225 -236z"/>
<path d="M1725 4711 c-89 -37 -74 -169 21 -187 56 -10 114 39 114 96 0 67 -73
116 -135 91z"/>
<path d="M2125 4711 c-64 -27 -81 -110 -32 -158 l27 -28 428 -3 c382 -3 430
-1 458 13 69 37 71 129 4 168 -25 15 -73 17 -447 16 -230 0 -427 -4 -438 -8z"/>
<path d="M3325 4711 c-89 -37 -74 -169 21 -187 56 -10 114 39 114 96 0 67 -73
116 -135 91z"/>
<path d="M1125 4311 c-11 -5 -29 -19 -40 -31 -20 -22 -20 -36 -20 -891 l0
-869 28 -27 27 -28 1428 -3 c1307 -3 1430 -2 1458 13 18 10 37 28 43 41 15 35
16 1713 0 1747 -6 13 -23 31 -39 40 -26 16 -140 17 -1447 16 -780 0 -1427 -4
-1438 -8z m1335 -921 l0 -730 -600 0 -600 0 0 730 0 730 600 0 600 0 0 -730z
m1400 0 l0 -730 -600 0 -600 0 0 730 0 730 600 0 600 0 0 -730z"/>
<path d="M1363 2145 c-78 -21 -130 -51 -185 -106 -152 -152 -151 -406 2 -559
155 -156 405 -156 560 -1 158 158 158 404 0 562 -101 101 -243 140 -377 104z
m211 -222 c151 -106 89 -341 -95 -359 -46 -5 -62 -2 -109 23 -44 23 -60 39
-82 82 -36 68 -36 114 0 182 22 43 38 59 82 82 47 25 63 28 109 23 38 -3 67
-14 95 -33z"/>
<path d="M3563 2145 c-159 -43 -266 -160 -294 -324 -46 -261 196 -500 457
-452 160 29 278 139 320 296 57 212 -85 437 -304 484 -68 14 -114 13 -179 -4z
m211 -222 c151 -106 89 -341 -95 -359 -46 -5 -62 -2 -109 23 -44 23 -60 39
-82 82 -16 31 -28 69 -28 91 0 22 12 60 28 91 22 43 38 59 82 82 47 25 63 28
109 23 38 -3 67 -14 95 -33z"/>
<path d="M2125 2051 c-64 -27 -81 -110 -32 -158 l27 -28 428 -3 c382 -3 430
-1 458 13 69 37 71 129 4 168 -25 15 -73 17 -447 16 -230 0 -427 -4 -438 -8z"/>
<path d="M2125 1651 c-64 -27 -81 -110 -32 -158 l27 -28 428 -3 c382 -3 430
-1 458 13 69 37 71 129 4 168 -25 15 -73 17 -447 16 -230 0 -427 -4 -438 -8z"/>
</g>
</svg>
